<svg xmlns="http://www.w3.org/2000/svg" xmlns:xlink="http://www.w3.org/1999/xlink" width="2000" zoomAndPan="magnify" viewBox="0 0 1500 1499.999933" height="2000" preserveAspectRatio="xMidYMid meet" version="1.0"><defs><g/><clipPath id="24e77485cc"><path d="M 783 617 L 828 617 L 828 662 L 783 662 Z M 783 617 " clip-rule="nonzero"/></clipPath><clipPath id="a8a93a208d"><path d="M 751.5625 614.3125 L 829.519531 616.894531 L 827.957031 664.117188 L 750 661.535156 Z M 751.5625 614.3125 " clip-rule="nonzero"/></clipPath><clipPath id="3a5442a8c0"><path d="M 751.5625 614.3125 L 829.519531 616.894531 L 827.957031 664.117188 L 750 661.535156 Z M 751.5625 614.3125 " clip-rule="nonzero"/></clipPath><clipPath id="8d71297e3f"><path d="M 752 627 L 783 627 L 783 662 L 752 662 Z M 752 627 " clip-rule="nonzero"/></clipPath><clipPath id="1decd89593"><path d="M 751.5625 614.3125 L 829.519531 616.894531 L 827.957031 664.117188 L 750 661.535156 Z M 751.5625 614.3125 " clip-rule="nonzero"/></clipPath><clipPath id="283a7453ae"><path d="M 751.5625 614.3125 L 829.519531 616.894531 L 827.957031 664.117188 L 750 661.535156 Z M 751.5625 614.3125 " clip-rule="nonzero"/></clipPath><clipPath id="63ff8f0c28"><rect x="0" width="128" y="0" height="126"/></clipPath></defs><g fill="#206d3c" fill-opacity="1"><g transform="translate(474.990169, 713.016135)"><g><path d="M 24.859375 -12.703125 C 24.859375 -10.222656 25.078125 -8.394531 25.515625 -7.21875 C 25.953125 -6.050781 26.550781 -5.269531 27.3125 -4.875 C 28.082031 -4.488281 29.296875 -4.148438 30.953125 -3.859375 C 32.878906 -3.535156 34.585938 -3.113281 36.078125 -2.59375 L 35.984375 0 L 3.515625 0 L 3.515625 -2.546875 C 4.460938 -2.960938 5.316406 -3.257812 6.078125 -3.4375 C 6.847656 -3.625 7.816406 -3.8125 8.984375 -4 C 10.453125 -4.195312 11.523438 -4.484375 12.203125 -4.859375 C 12.890625 -5.234375 13.421875 -6.070312 13.796875 -7.375 C 14.171875 -8.675781 14.359375 -10.742188 14.359375 -13.578125 L 14.359375 -50.296875 C 14.359375 -52.960938 14.128906 -54.929688 13.671875 -56.203125 C 13.210938 -57.472656 12.617188 -58.285156 11.890625 -58.640625 C 11.160156 -59.003906 10.078125 -59.28125 8.640625 -59.46875 C 7.472656 -59.664062 6.503906 -59.863281 5.734375 -60.0625 C 4.972656 -60.257812 4.171875 -60.597656 3.328125 -61.078125 L 3.421875 -63.578125 L 35.796875 -63.578125 L 35.890625 -61.03125 C 35.203125 -60.769531 34.222656 -60.492188 32.953125 -60.203125 C 31.171875 -59.742188 29.738281 -59.285156 28.65625 -58.828125 C 27.582031 -58.378906 26.679688 -57.675781 25.953125 -56.71875 C 25.222656 -55.757812 24.859375 -54.445312 24.859375 -52.78125 Z M 24.859375 -12.703125 "/></g></g></g><g fill="#206d3c" fill-opacity="1"><g transform="translate(506.29295, 713.016135)"><g><path d="M 18.796875 -10.84375 C 18.796875 -8.039062 19.503906 -6.007812 20.921875 -4.75 C 22.335938 -3.5 24.492188 -2.726562 27.390625 -2.4375 C 27.390625 -1.945312 27.375 -1.457031 27.34375 -0.96875 C 27.3125 -0.488281 27.296875 -0.164062 27.296875 0 L 2.15625 0 L 2.09375 -1.5625 C 2.09375 -2.082031 2.113281 -2.441406 2.15625 -2.640625 C 4.039062 -3.097656 5.460938 -3.503906 6.421875 -3.859375 C 7.378906 -4.210938 8.164062 -4.796875 8.78125 -5.609375 C 9.40625 -6.429688 9.71875 -7.570312 9.71875 -9.03125 L 9.71875 -35.5 C 9.320312 -36.25 8.554688 -36.921875 7.421875 -37.515625 C 6.285156 -38.117188 5.085938 -38.625 3.828125 -39.03125 C 2.578125 -39.445312 1.953125 -39.632812 1.953125 -39.59375 L 2.09375 -41.265625 L 15.4375 -44.578125 L 18.40625 -44.78125 L 18.953125 -36.859375 C 20.734375 -39.273438 23.015625 -41.269531 25.796875 -42.84375 C 28.585938 -44.425781 31.59375 -45.21875 34.8125 -45.21875 C 39.53125 -45.21875 43.191406 -43.878906 45.796875 -41.203125 C 48.398438 -38.535156 49.816406 -34.550781 50.046875 -29.25 C 50.148438 -27.164062 50.203125 -25.035156 50.203125 -22.859375 L 50.203125 -11.96875 C 50.203125 -9.59375 50.347656 -7.863281 50.640625 -6.78125 C 50.929688 -5.707031 51.394531 -4.96875 52.03125 -4.5625 C 52.664062 -4.15625 53.726562 -3.722656 55.21875 -3.265625 L 57.28125 -2.640625 C 57.3125 -2.441406 57.328125 -2.082031 57.328125 -1.5625 L 57.28125 0 L 33.203125 0 C 33.203125 -0.195312 33.1875 -0.53125 33.15625 -1 C 33.125 -1.46875 33.109375 -1.945312 33.109375 -2.4375 C 33.335938 -2.539062 33.988281 -2.738281 35.0625 -3.03125 C 36.78125 -3.519531 38.117188 -4.039062 39.078125 -4.59375 C 40.046875 -5.144531 40.628906 -6.039062 40.828125 -7.28125 C 40.984375 -8.21875 41.0625 -9.46875 41.0625 -11.03125 L 41.0625 -21.921875 C 41.0625 -26.253906 40.90625 -29.59375 40.59375 -31.9375 C 40.289062 -34.28125 39.476562 -36.195312 38.15625 -37.6875 C 36.84375 -39.1875 34.71875 -39.9375 31.78125 -39.9375 C 29.476562 -39.9375 27.257812 -39.269531 25.125 -37.9375 C 22.988281 -36.601562 20.878906 -34.832031 18.796875 -32.625 Z M 18.796875 -10.84375 "/></g></g></g><g fill="#206d3c" fill-opacity="1"><g transform="translate(556.787036, 713.016135)"><g/></g></g><g fill="#206d3c" fill-opacity="1"><g transform="translate(572.12364, 713.016135)"><g/></g></g><g fill="#206d3c" fill-opacity="1"><g transform="translate(587.460244, 713.016135)"><g/></g></g><g fill="#206d3c" fill-opacity="1"><g transform="translate(602.796848, 713.016135)"><g/></g></g><g fill="#206d3c" fill-opacity="1"><g transform="translate(618.133452, 713.016135)"><g/></g></g><g fill="#206d3c" fill-opacity="1"><g transform="translate(633.470056, 713.016135)"><g/></g></g><g fill="#206d3c" fill-opacity="1"><g transform="translate(648.80666, 713.016135)"><g/></g></g><g fill="#206d3c" fill-opacity="1"><g transform="translate(664.143264, 713.016135)"><g/></g></g><g fill="#206d3c" fill-opacity="1"><g transform="translate(679.482338, 713.016135)"><g><path d="M 40.140625 -57.375 C 39.710938 -58.019531 38.890625 -58.664062 37.671875 -59.3125 C 36.453125 -59.96875 35.265625 -60.523438 34.109375 -60.984375 C 32.953125 -61.441406 32.195312 -61.71875 31.84375 -61.8125 L 31.9375 -63.53125 L 45.703125 -66.84375 L 49.21875 -67.1875 L 49.21875 -9.71875 C 49.21875 -7.757812 50.054688 -6.359375 51.734375 -5.515625 C 53.410156 -4.671875 55.207031 -4.25 57.125 -4.25 L 57.125 -1.5625 L 44.09375 0.59375 L 40.828125 0.59375 L 40.375 -6.984375 C 38.070312 -4.316406 35.648438 -2.320312 33.109375 -1 C 30.566406 0.320312 27.847656 0.984375 24.953125 0.984375 C 21.273438 0.984375 17.910156 0.0976562 14.859375 -1.671875 C 11.816406 -3.453125 9.414062 -5.945312 7.65625 -9.15625 C 5.90625 -12.363281 5.03125 -16.050781 5.03125 -20.21875 C 5.03125 -25 6.015625 -29.273438 7.984375 -33.046875 C 9.953125 -36.828125 12.660156 -39.773438 16.109375 -41.890625 C 19.566406 -44.003906 23.425781 -45.0625 27.6875 -45.0625 C 29.675781 -45.0625 31.613281 -44.757812 33.5 -44.15625 C 35.382812 -43.5625 37.597656 -42.660156 40.140625 -41.453125 Z M 40.140625 -24.90625 C 40.140625 -28.0625 39.863281 -30.609375 39.3125 -32.546875 C 38.757812 -34.484375 37.632812 -36.203125 35.9375 -37.703125 C 34.632812 -38.835938 33.234375 -39.722656 31.734375 -40.359375 C 30.242188 -40.992188 28.734375 -41.3125 27.203125 -41.3125 C 24.628906 -41.3125 22.347656 -40.476562 20.359375 -38.8125 C 18.378906 -37.15625 16.84375 -34.953125 15.75 -32.203125 C 14.65625 -29.453125 14.109375 -26.484375 14.109375 -23.296875 C 14.109375 -20.203125 14.65625 -17.242188 15.75 -14.421875 C 16.84375 -11.609375 18.476562 -9.304688 20.65625 -7.515625 C 22.832031 -5.722656 25.46875 -4.828125 28.5625 -4.828125 C 31.039062 -4.828125 33.25 -5.375 35.1875 -6.46875 C 37.125 -7.5625 38.773438 -9.019531 40.140625 -10.84375 Z M 40.140625 -24.90625 "/></g></g></g><g fill="#206d3c" fill-opacity="1"><g transform="translate(729.973816, 713.016135)"><g><path d="M 30.765625 -29.734375 C 30.765625 -32.179688 30.539062 -34.25 30.09375 -35.9375 C 29.65625 -37.632812 28.773438 -39.003906 27.453125 -40.046875 C 26.140625 -41.085938 24.265625 -41.609375 21.828125 -41.609375 C 20.984375 -41.609375 19.941406 -41.425781 18.703125 -41.0625 C 17.460938 -40.707031 16.378906 -40.195312 15.453125 -39.53125 C 14.523438 -38.863281 14.0625 -38.085938 14.0625 -37.203125 C 14.0625 -36.847656 14.125 -36.5 14.25 -36.15625 C 14.382812 -35.8125 14.597656 -35.378906 14.890625 -34.859375 C 15.179688 -34.367188 15.390625 -33.945312 15.515625 -33.59375 C 15.648438 -33.238281 15.71875 -32.863281 15.71875 -32.46875 C 15.71875 -31.164062 15.300781 -30.082031 14.46875 -29.21875 C 13.644531 -28.363281 12.582031 -27.9375 11.28125 -27.9375 C 9.65625 -27.9375 8.359375 -28.535156 7.390625 -29.734375 C 6.429688 -30.941406 5.953125 -32.390625 5.953125 -34.078125 C 5.953125 -36.617188 6.945312 -38.71875 8.9375 -40.375 C 10.925781 -42.039062 13.328125 -43.265625 16.140625 -44.046875 C 18.953125 -44.828125 21.582031 -45.21875 24.03125 -45.21875 C 28.613281 -45.21875 32.035156 -44.539062 34.296875 -43.1875 C 36.566406 -41.832031 38.066406 -39.863281 38.796875 -37.28125 C 39.523438 -34.695312 39.890625 -31.078125 39.890625 -26.421875 L 39.796875 -23.96875 C 39.765625 -23.257812 39.722656 -22.070312 39.671875 -20.40625 C 39.617188 -18.75 39.59375 -17.222656 39.59375 -15.828125 C 39.59375 -8.492188 40.359375 -4.828125 41.890625 -4.828125 C 43.003906 -4.828125 44.4375 -5.953125 46.1875 -8.203125 L 48.25 -6 C 46.8125 -3.65625 45.390625 -1.90625 43.984375 -0.75 C 42.585938 0.40625 40.753906 0.984375 38.484375 0.984375 C 36.328125 0.984375 34.554688 0.304688 33.171875 -1.046875 C 31.796875 -2.398438 31.039062 -4.148438 30.90625 -6.296875 C 28.820312 -4.015625 26.484375 -2.226562 23.890625 -0.9375 C 21.304688 0.34375 18.566406 0.984375 15.671875 0.984375 C 13.648438 0.984375 11.785156 0.617188 10.078125 -0.109375 C 8.367188 -0.847656 7 -1.945312 5.96875 -3.40625 C 4.945312 -4.875 4.4375 -6.632812 4.4375 -8.6875 C 4.4375 -11.78125 5.625 -14.351562 8 -16.40625 C 10.382812 -18.457031 13.117188 -20.019531 16.203125 -21.09375 C 19.296875 -22.164062 23.078125 -23.238281 27.546875 -24.3125 C 27.929688 -24.382812 29.003906 -24.644531 30.765625 -25.09375 Z M 30.765625 -22.21875 C 30.273438 -22.050781 29.65625 -21.851562 28.90625 -21.625 C 26.101562 -20.71875 23.707031 -19.847656 21.71875 -19.015625 C 19.738281 -18.191406 17.96875 -17.078125 16.40625 -15.671875 C 14.84375 -14.273438 14.0625 -12.632812 14.0625 -10.75 C 14.0625 -8.820312 14.585938 -7.304688 15.640625 -6.203125 C 16.703125 -5.097656 18.195312 -4.546875 20.125 -4.546875 C 22.039062 -4.546875 23.894531 -5.023438 25.6875 -5.984375 C 27.476562 -6.941406 29.171875 -8.203125 30.765625 -9.765625 Z M 30.765625 -22.21875 "/></g></g></g><g fill="#206d3c" fill-opacity="1"><g transform="translate(771.334798, 713.016135)"><g><path d="M 18.75 -11.28125 C 18.75 -9.75 18.921875 -8.390625 19.265625 -7.203125 C 19.609375 -6.015625 20.429688 -4.960938 21.734375 -4.046875 C 23.035156 -3.140625 24.988281 -2.601562 27.59375 -2.4375 L 27.546875 0 L 2.09375 0 C 2.09375 -0.257812 2.082031 -0.679688 2.0625 -1.265625 C 2.050781 -1.859375 2.0625 -2.316406 2.09375 -2.640625 L 3.71875 -3.078125 C 5.4375 -3.535156 6.671875 -3.957031 7.421875 -4.34375 C 8.171875 -4.738281 8.734375 -5.429688 9.109375 -6.421875 C 9.484375 -7.410156 9.671875 -8.929688 9.671875 -10.984375 L 9.671875 -35.546875 C 9.242188 -36.265625 8.457031 -36.921875 7.3125 -37.515625 C 6.175781 -38.117188 5 -38.613281 3.78125 -39 C 2.5625 -39.394531 1.953125 -39.578125 1.953125 -39.546875 L 2.046875 -41.265625 L 15.046875 -44.734375 L 17.828125 -44.734375 L 18.609375 -35.75 C 20.429688 -39.09375 22.328125 -41.460938 24.296875 -42.859375 C 26.265625 -44.265625 28.519531 -44.96875 31.0625 -44.96875 C 32.363281 -44.96875 33.539062 -44.695312 34.59375 -44.15625 C 35.65625 -43.625 36.484375 -42.941406 37.078125 -42.109375 C 37.679688 -41.285156 37.984375 -40.445312 37.984375 -39.59375 C 37.984375 -39.039062 37.828125 -38.289062 37.515625 -37.34375 C 37.210938 -36.40625 36.742188 -35.578125 36.109375 -34.859375 C 35.472656 -34.148438 34.703125 -33.796875 33.796875 -33.796875 C 32.753906 -33.796875 31.9375 -34.03125 31.34375 -34.5 C 30.757812 -34.96875 30.160156 -35.675781 29.546875 -36.625 C 29.085938 -37.34375 28.65625 -37.878906 28.25 -38.234375 C 27.84375 -38.585938 27.328125 -38.765625 26.703125 -38.765625 C 25.660156 -38.765625 24.722656 -38.460938 23.890625 -37.859375 C 23.066406 -37.265625 22.34375 -36.523438 21.71875 -35.640625 C 21.101562 -34.765625 20.359375 -33.59375 19.484375 -32.125 L 18.75 -30.90625 Z M 18.75 -11.28125 "/></g></g></g><g fill="#206d3c" fill-opacity="1"><g transform="translate(802.247953, 713.016135)"><g/></g></g><g clip-path="url(#24e77485cc)"><g clip-path="url(#a8a93a208d)"><g clip-path="url(#3a5442a8c0)"><path fill="#206d3c" d="M 786.347656 660.089844 C 784.703125 655.9375 782.320312 647.871094 785.199219 639.441406 C 789.925781 625.609375 806.976562 616.144531 827.054688 618.109375 C 829.164062 635.246094 822.050781 650.996094 809.40625 657.710938 C 800.890625 662.234375 792.25 661.386719 788.171875 660.679688 C 792.472656 657.636719 797.320312 653.703125 802.203125 648.683594 C 809.738281 640.9375 814.855469 633.167969 818.277344 626.953125 C 813.449219 633.234375 807.671875 640.003906 800.8125 646.890625 C 795.863281 651.859375 790.988281 656.242188 786.347656 660.089844 Z M 786.347656 660.089844 " fill-opacity="1" fill-rule="nonzero"/></g></g></g><g clip-path="url(#8d71297e3f)"><g clip-path="url(#1decd89593)"><g clip-path="url(#283a7453ae)"><path fill="#206d3c" d="M 780.96875 660.359375 C 777.796875 661.203125 771.710938 662.253906 765.804688 659.433594 C 756.121094 654.808594 750.667969 641.566406 753.8125 627.085938 C 766.492188 627.007812 777.375 633.539062 781.195312 643.335938 C 783.769531 649.933594 782.414062 656.160156 781.550781 659.078125 C 779.699219 655.679688 777.242188 651.808594 773.996094 647.820312 C 768.988281 641.664062 763.757812 637.269531 759.511719 634.242188 C 763.6875 638.300781 768.132812 643.089844 772.570312 648.679688 C 775.773438 652.714844 778.554688 656.644531 780.96875 660.359375 Z M 780.96875 660.359375 " fill-opacity="1" fill-rule="nonzero"/></g></g></g><g fill="#206d3c" fill-opacity="1"><g transform="translate(481.858643, 755.341139)"><g><path d="M 6.796875 -24.46875 C 6.796875 -25.726562 6.695312 -26.65625 6.5 -27.25 C 6.3125 -27.851562 6.035156 -28.269531 5.671875 -28.5 C 5.304688 -28.738281 4.707031 -28.96875 3.875 -29.1875 C 3.757812 -29.21875 3.472656 -29.300781 3.015625 -29.4375 C 2.566406 -29.570312 2.101562 -29.738281 1.625 -29.9375 L 1.671875 -31.15625 L 15.265625 -31.15625 C 17.847656 -31.15625 20.125 -31.003906 22.09375 -30.703125 C 24.0625 -30.410156 25.78125 -29.691406 27.25 -28.546875 C 28.71875 -27.398438 29.453125 -25.660156 29.453125 -23.328125 C 29.453125 -19.421875 26.570312 -16.976562 20.8125 -16 C 22.46875 -15.925781 24.070312 -15.613281 25.625 -15.0625 C 27.1875 -14.507812 28.476562 -13.671875 29.5 -12.546875 C 30.519531 -11.421875 31.03125 -10.019531 31.03125 -8.34375 C 31.03125 -6.351562 30.414062 -4.734375 29.1875 -3.484375 C 27.957031 -2.234375 26.425781 -1.335938 24.59375 -0.796875 C 22.757812 -0.265625 20.863281 0 18.90625 0 L 1.671875 0 L 1.625 -1.25 L 2.484375 -1.484375 C 3.410156 -1.722656 4.160156 -1.960938 4.734375 -2.203125 C 5.304688 -2.453125 5.789062 -2.820312 6.1875 -3.3125 C 6.59375 -3.800781 6.796875 -4.457031 6.796875 -5.28125 Z M 11.9375 -17.46875 C 12.164062 -17.257812 12.460938 -17.085938 12.828125 -16.953125 C 13.191406 -16.816406 13.535156 -16.75 13.859375 -16.75 L 17.03125 -16.75 C 22.132812 -16.75 24.6875 -18.6875 24.6875 -22.5625 C 24.6875 -24.625 24.109375 -26.148438 22.953125 -27.140625 C 21.796875 -28.140625 20.425781 -28.757812 18.84375 -29 C 17.269531 -29.238281 15.335938 -29.359375 13.046875 -29.359375 L 11.9375 -29.359375 Z M 11.9375 -6.5625 C 11.9375 -5.4375 12.128906 -4.40625 12.515625 -3.46875 C 12.910156 -2.539062 13.597656 -2.078125 14.578125 -2.078125 L 18.453125 -2.078125 C 19.679688 -2.078125 20.789062 -2.3125 21.78125 -2.78125 C 22.78125 -3.257812 23.570312 -3.945312 24.15625 -4.84375 C 24.75 -5.75 25.046875 -6.816406 25.046875 -8.046875 C 25.046875 -10.179688 24.40625 -11.757812 23.125 -12.78125 C 21.851562 -13.8125 20.367188 -14.453125 18.671875 -14.703125 C 16.972656 -14.953125 14.925781 -15.078125 12.53125 -15.078125 C 12.257812 -14.835938 12.09375 -14.550781 12.03125 -14.21875 C 11.96875 -13.894531 11.9375 -13.476562 11.9375 -12.96875 Z M 11.9375 -6.5625 "/></g></g></g><g fill="#206d3c" fill-opacity="1"><g transform="translate(511.048136, 755.341139)"><g><path d="M 7.015625 -32.921875 C 7.773438 -32.921875 8.425781 -32.648438 8.96875 -32.109375 C 9.507812 -31.566406 9.78125 -30.910156 9.78125 -30.140625 C 9.78125 -29.359375 9.507812 -28.703125 8.96875 -28.171875 C 8.425781 -27.640625 7.773438 -27.375 7.015625 -27.375 C 6.234375 -27.375 5.570312 -27.640625 5.03125 -28.171875 C 4.5 -28.703125 4.234375 -29.359375 4.234375 -30.140625 C 4.234375 -30.910156 4.5 -31.566406 5.03125 -32.109375 C 5.570312 -32.648438 6.234375 -32.921875 7.015625 -32.921875 Z M 5.09375 -17.390625 C 4.882812 -17.753906 4.5 -18.082031 3.9375 -18.375 C 3.375 -18.675781 2.789062 -18.925781 2.1875 -19.125 C 1.59375 -19.320312 1.296875 -19.414062 1.296875 -19.40625 L 1.34375 -20.234375 L 8.0625 -21.875 L 9.546875 -21.96875 L 9.546875 -5.265625 C 9.546875 -4.703125 9.601562 -4.171875 9.71875 -3.671875 C 9.84375 -3.179688 10.210938 -2.679688 10.828125 -2.171875 C 11.441406 -1.660156 12.410156 -1.335938 13.734375 -1.203125 C 13.734375 -0.671875 13.722656 -0.269531 13.703125 0 L 1.21875 0 C 1.1875 -0.289062 1.171875 -0.691406 1.171875 -1.203125 L 1.84375 -1.390625 C 2.539062 -1.578125 3.101562 -1.765625 3.53125 -1.953125 C 3.96875 -2.148438 4.335938 -2.4375 4.640625 -2.8125 C 4.941406 -3.1875 5.09375 -3.691406 5.09375 -4.328125 Z M 5.09375 -17.390625 "/></g></g></g><g fill="#206d3c" fill-opacity="1"><g transform="translate(521.289922, 755.341139)"><g><path d="M 8.78125 -7.515625 C 8.78125 -5.890625 8.832031 -4.726562 8.9375 -4.03125 C 9.050781 -3.332031 9.320312 -2.828125 9.75 -2.515625 C 10.1875 -2.210938 10.914062 -2.0625 11.9375 -2.0625 C 12.539062 -2.0625 13.144531 -2.113281 13.75 -2.21875 C 14.363281 -2.332031 14.875 -2.453125 15.28125 -2.578125 L 15.484375 -0.84375 C 14.671875 -0.4375 13.847656 -0.113281 13.015625 0.125 C 12.179688 0.363281 11.1875 0.484375 10.03125 0.484375 C 8.476562 0.484375 7.296875 0.226562 6.484375 -0.28125 C 5.671875 -0.789062 5.101562 -1.613281 4.78125 -2.75 C 4.46875 -3.894531 4.3125 -5.503906 4.3125 -7.578125 L 4.3125 -19.71875 L 0.734375 -19.71875 L 0.734375 -20.546875 C 1.828125 -20.984375 2.742188 -21.488281 3.484375 -22.0625 C 4.222656 -22.644531 4.832031 -23.25 5.3125 -23.875 C 5.789062 -24.5 6.363281 -25.320312 7.03125 -26.34375 C 7.320312 -26.800781 7.546875 -27.101562 7.703125 -27.25 C 7.859375 -27.40625 8.019531 -27.484375 8.1875 -27.484375 C 8.34375 -27.484375 8.472656 -27.40625 8.578125 -27.25 C 8.679688 -27.101562 8.734375 -26.875 8.734375 -26.5625 L 8.734375 -21.515625 L 14.734375 -21.515625 L 14.734375 -19.71875 L 8.78125 -19.71875 Z M 8.78125 -7.515625 "/></g></g></g><g fill="#206d3c" fill-opacity="1"><g transform="translate(533.684857, 755.341139)"><g><path d="M 6.203125 -12.578125 C 6.179688 -12.421875 6.171875 -12.191406 6.171875 -11.890625 C 6.171875 -9.878906 6.53125 -8.195312 7.25 -6.84375 C 7.976562 -5.5 8.953125 -4.503906 10.171875 -3.859375 C 11.398438 -3.210938 12.769531 -2.890625 14.28125 -2.890625 C 16.289062 -2.890625 18.226562 -3.46875 20.09375 -4.625 L 20.796875 -3.953125 C 20.410156 -3.023438 19.765625 -2.222656 18.859375 -1.546875 C 17.960938 -0.878906 16.941406 -0.375 15.796875 -0.03125 C 14.660156 0.3125 13.554688 0.484375 12.484375 0.484375 C 10.472656 0.484375 8.664062 0.015625 7.0625 -0.921875 C 5.46875 -1.867188 4.21875 -3.1875 3.3125 -4.875 C 2.414062 -6.570312 1.96875 -8.507812 1.96875 -10.6875 C 1.96875 -12.90625 2.453125 -14.890625 3.421875 -16.640625 C 4.390625 -18.390625 5.679688 -19.742188 7.296875 -20.703125 C 8.921875 -21.671875 10.660156 -22.15625 12.515625 -22.15625 C 14.023438 -22.15625 15.390625 -21.847656 16.609375 -21.234375 C 17.835938 -20.617188 18.832031 -19.753906 19.59375 -18.640625 C 20.363281 -17.535156 20.851562 -16.265625 21.0625 -14.828125 C 21.226562 -14.097656 21.3125 -13.421875 21.3125 -12.796875 L 21.3125 -12.578125 Z M 14.8125 -14.109375 C 15.507812 -14.148438 16.097656 -14.28125 16.578125 -14.5 C 16.460938 -16.394531 16.019531 -17.875 15.25 -18.9375 C 14.476562 -20.007812 13.382812 -20.546875 11.96875 -20.546875 C 10.925781 -20.546875 10 -20.234375 9.1875 -19.609375 C 8.382812 -18.992188 7.738281 -18.171875 7.25 -17.140625 C 6.757812 -16.109375 6.441406 -14.976562 6.296875 -13.75 Z M 14.8125 -14.109375 "/></g></g></g><g fill="#206d3c" fill-opacity="1"><g transform="translate(552.754558, 755.341139)"><g><path d="M 16.53125 -15.09375 C 16.3125 -15.082031 15.9375 -15.078125 15.40625 -15.078125 C 14.945312 -16.679688 14.25 -17.992188 13.3125 -19.015625 C 12.382812 -20.035156 11.191406 -20.546875 9.734375 -20.546875 C 8.734375 -20.546875 7.941406 -20.296875 7.359375 -19.796875 C 6.773438 -19.304688 6.484375 -18.59375 6.484375 -17.65625 C 6.484375 -17 6.722656 -16.390625 7.203125 -15.828125 C 7.679688 -15.273438 8.265625 -14.785156 8.953125 -14.359375 C 9.648438 -13.941406 10.566406 -13.445312 11.703125 -12.875 C 11.972656 -12.75 12.378906 -12.539062 12.921875 -12.25 C 14.703125 -11.289062 16.003906 -10.3125 16.828125 -9.3125 C 17.648438 -8.320312 18.0625 -7.109375 18.0625 -5.671875 C 18.0625 -4.347656 17.734375 -3.226562 17.078125 -2.3125 C 16.429688 -1.394531 15.53125 -0.695312 14.375 -0.21875 C 13.226562 0.25 11.914062 0.484375 10.4375 0.484375 C 9.125 0.484375 7.796875 0.328125 6.453125 0.015625 C 5.117188 -0.296875 4.019531 -0.71875 3.15625 -1.25 L 3.15625 -7.078125 C 3.78125 -7.160156 4.203125 -7.203125 4.421875 -7.203125 C 4.796875 -5.429688 5.445312 -3.988281 6.375 -2.875 C 7.3125 -1.757812 8.59375 -1.203125 10.21875 -1.203125 C 11.382812 -1.203125 12.351562 -1.488281 13.125 -2.0625 C 13.894531 -2.644531 14.28125 -3.414062 14.28125 -4.375 C 14.28125 -4.976562 14.101562 -5.507812 13.75 -5.96875 C 13.40625 -6.4375 12.953125 -6.847656 12.390625 -7.203125 C 11.835938 -7.554688 11 -8.023438 9.875 -8.609375 C 8.375 -9.410156 7.234375 -10.054688 6.453125 -10.546875 C 5.242188 -11.296875 4.332031 -12.132812 3.71875 -13.0625 C 3.101562 -13.988281 2.796875 -15.085938 2.796875 -16.359375 C 2.796875 -17.585938 3.109375 -18.632812 3.734375 -19.5 C 4.359375 -20.375 5.203125 -21.035156 6.265625 -21.484375 C 7.335938 -21.929688 8.539062 -22.15625 9.875 -22.15625 C 11.101562 -22.15625 12.269531 -22.003906 13.375 -21.703125 C 14.488281 -21.398438 15.492188 -20.96875 16.390625 -20.40625 Z M 16.53125 -15.09375 "/></g></g></g><g fill="#206d3c" fill-opacity="1"><g transform="translate(569.216551, 755.341139)"><g/></g></g><g fill="#206d3c" fill-opacity="1"><g transform="translate(576.731015, 755.341139)"><g><path d="M 15.078125 -14.578125 C 15.078125 -15.765625 14.96875 -16.773438 14.75 -17.609375 C 14.53125 -18.441406 14.097656 -19.113281 13.453125 -19.625 C 12.804688 -20.132812 11.882812 -20.390625 10.6875 -20.390625 C 10.28125 -20.390625 9.769531 -20.300781 9.15625 -20.125 C 8.550781 -19.945312 8.019531 -19.691406 7.5625 -19.359375 C 7.113281 -19.035156 6.890625 -18.660156 6.890625 -18.234375 C 6.890625 -18.054688 6.921875 -17.882812 6.984375 -17.71875 C 7.046875 -17.550781 7.148438 -17.335938 7.296875 -17.078125 C 7.441406 -16.835938 7.546875 -16.628906 7.609375 -16.453125 C 7.671875 -16.285156 7.703125 -16.101562 7.703125 -15.90625 C 7.703125 -15.269531 7.5 -14.738281 7.09375 -14.3125 C 6.6875 -13.894531 6.164062 -13.6875 5.53125 -13.6875 C 4.726562 -13.6875 4.09375 -13.976562 3.625 -14.5625 C 3.15625 -15.15625 2.921875 -15.867188 2.921875 -16.703125 C 2.921875 -17.941406 3.40625 -18.96875 4.375 -19.78125 C 5.351562 -20.59375 6.53125 -21.191406 7.90625 -21.578125 C 9.289062 -21.960938 10.578125 -22.15625 11.765625 -22.15625 C 14.015625 -22.15625 15.691406 -21.820312 16.796875 -21.15625 C 17.910156 -20.5 18.644531 -19.535156 19 -18.265625 C 19.363281 -16.992188 19.546875 -15.21875 19.546875 -12.9375 L 19.5 -11.75 C 19.476562 -11.394531 19.457031 -10.8125 19.4375 -10 C 19.414062 -9.1875 19.40625 -8.4375 19.40625 -7.75 C 19.40625 -4.164062 19.78125 -2.375 20.53125 -2.375 C 21.070312 -2.375 21.773438 -2.921875 22.640625 -4.015625 L 23.640625 -2.9375 C 22.941406 -1.789062 22.25 -0.929688 21.5625 -0.359375 C 20.875 0.203125 19.972656 0.484375 18.859375 0.484375 C 17.804688 0.484375 16.9375 0.15625 16.25 -0.5 C 15.570312 -1.164062 15.203125 -2.03125 15.140625 -3.09375 C 14.117188 -1.96875 12.972656 -1.085938 11.703125 -0.453125 C 10.441406 0.171875 9.101562 0.484375 7.6875 0.484375 C 6.695312 0.484375 5.78125 0.304688 4.9375 -0.046875 C 4.101562 -0.410156 3.429688 -0.953125 2.921875 -1.671875 C 2.421875 -2.390625 2.171875 -3.253906 2.171875 -4.265625 C 2.171875 -5.773438 2.753906 -7.03125 3.921875 -8.03125 C 5.085938 -9.039062 6.425781 -9.804688 7.9375 -10.328125 C 9.457031 -10.859375 11.3125 -11.390625 13.5 -11.921875 C 13.6875 -11.953125 14.210938 -12.078125 15.078125 -12.296875 Z M 15.078125 -10.890625 C 14.835938 -10.804688 14.535156 -10.707031 14.171875 -10.59375 C 12.796875 -10.144531 11.617188 -9.71875 10.640625 -9.3125 C 9.671875 -8.90625 8.800781 -8.359375 8.03125 -7.671875 C 7.269531 -6.992188 6.890625 -6.191406 6.890625 -5.265625 C 6.890625 -4.328125 7.148438 -3.582031 7.671875 -3.03125 C 8.191406 -2.488281 8.921875 -2.21875 9.859375 -2.21875 C 10.796875 -2.21875 11.703125 -2.453125 12.578125 -2.921875 C 13.460938 -3.398438 14.296875 -4.019531 15.078125 -4.78125 Z M 15.078125 -10.890625 "/></g></g></g><g fill="#206d3c" fill-opacity="1"><g transform="translate(596.996909, 755.341139)"><g><path d="M 9.21875 -5.3125 C 9.21875 -3.9375 9.5625 -2.941406 10.25 -2.328125 C 10.945312 -1.710938 12.003906 -1.335938 13.421875 -1.203125 C 13.421875 -0.960938 13.410156 -0.722656 13.390625 -0.484375 C 13.378906 -0.242188 13.375 -0.0820312 13.375 0 L 1.046875 0 L 1.03125 -0.765625 C 1.03125 -1.023438 1.035156 -1.203125 1.046875 -1.296875 C 1.972656 -1.515625 2.671875 -1.710938 3.140625 -1.890625 C 3.617188 -2.066406 4.007812 -2.351562 4.3125 -2.75 C 4.613281 -3.144531 4.765625 -3.703125 4.765625 -4.421875 L 4.765625 -17.390625 C 4.566406 -17.753906 4.1875 -18.082031 3.625 -18.375 C 3.070312 -18.675781 2.488281 -18.925781 1.875 -19.125 C 1.257812 -19.320312 0.953125 -19.414062 0.953125 -19.40625 L 1.03125 -20.21875 L 7.5625 -21.84375 L 9.015625 -21.9375 L 9.28125 -18.0625 C 10.15625 -19.238281 11.273438 -20.210938 12.640625 -20.984375 C 14.003906 -21.765625 15.476562 -22.15625 17.0625 -22.15625 C 19.375 -22.15625 21.164062 -21.5 22.4375 -20.1875 C 23.71875 -18.882812 24.414062 -16.929688 24.53125 -14.328125 C 24.570312 -13.304688 24.59375 -12.265625 24.59375 -11.203125 L 24.59375 -5.859375 C 24.59375 -4.691406 24.664062 -3.84375 24.8125 -3.3125 C 24.957031 -2.789062 25.179688 -2.429688 25.484375 -2.234375 C 25.796875 -2.035156 26.320312 -1.828125 27.0625 -1.609375 L 28.0625 -1.296875 C 28.082031 -1.203125 28.09375 -1.023438 28.09375 -0.765625 L 28.0625 0 L 16.265625 0 C 16.265625 -0.09375 16.253906 -0.253906 16.234375 -0.484375 C 16.222656 -0.722656 16.21875 -0.960938 16.21875 -1.203125 C 16.332031 -1.242188 16.648438 -1.335938 17.171875 -1.484375 C 18.023438 -1.722656 18.6875 -1.976562 19.15625 -2.25 C 19.625 -2.519531 19.90625 -2.957031 20 -3.5625 C 20.082031 -4.03125 20.125 -4.644531 20.125 -5.40625 L 20.125 -10.75 C 20.125 -12.863281 20.046875 -14.492188 19.890625 -15.640625 C 19.742188 -16.796875 19.347656 -17.738281 18.703125 -18.46875 C 18.054688 -19.207031 17.015625 -19.578125 15.578125 -19.578125 C 14.441406 -19.578125 13.351562 -19.25 12.3125 -18.59375 C 11.269531 -17.9375 10.238281 -17.066406 9.21875 -15.984375 Z M 9.21875 -5.3125 "/></g></g></g><g fill="#206d3c" fill-opacity="1"><g transform="translate(621.736561, 755.341139)"><g><path d="M 19.671875 -28.109375 C 19.460938 -28.429688 19.054688 -28.75 18.453125 -29.0625 C 17.859375 -29.382812 17.273438 -29.65625 16.703125 -29.875 C 16.140625 -30.101562 15.769531 -30.242188 15.59375 -30.296875 L 15.640625 -31.125 L 22.390625 -32.75 L 24.125 -32.921875 L 24.125 -4.765625 C 24.125 -3.804688 24.53125 -3.117188 25.34375 -2.703125 C 26.164062 -2.285156 27.050781 -2.078125 28 -2.078125 L 28 -0.765625 L 21.609375 0.28125 L 20 0.28125 L 19.78125 -3.421875 C 18.65625 -2.109375 17.46875 -1.128906 16.21875 -0.484375 C 14.976562 0.160156 13.644531 0.484375 12.21875 0.484375 C 10.414062 0.484375 8.769531 0.0507812 7.28125 -0.8125 C 5.789062 -1.6875 4.613281 -2.910156 3.75 -4.484375 C 2.894531 -6.054688 2.46875 -7.863281 2.46875 -9.90625 C 2.46875 -12.25 2.945312 -14.34375 3.90625 -16.1875 C 4.875 -18.039062 6.203125 -19.484375 7.890625 -20.515625 C 9.585938 -21.554688 11.476562 -22.078125 13.5625 -22.078125 C 14.539062 -22.078125 15.488281 -21.929688 16.40625 -21.640625 C 17.332031 -21.347656 18.421875 -20.90625 19.671875 -20.3125 Z M 19.671875 -12.203125 C 19.671875 -13.742188 19.535156 -14.988281 19.265625 -15.9375 C 18.992188 -16.894531 18.441406 -17.738281 17.609375 -18.46875 C 16.972656 -19.03125 16.285156 -19.460938 15.546875 -19.765625 C 14.816406 -20.078125 14.078125 -20.234375 13.328125 -20.234375 C 12.066406 -20.234375 10.945312 -19.828125 9.96875 -19.015625 C 9 -18.203125 8.25 -17.117188 7.71875 -15.765625 C 7.1875 -14.421875 6.921875 -12.96875 6.921875 -11.40625 C 6.921875 -9.894531 7.1875 -8.445312 7.71875 -7.0625 C 8.25 -5.6875 9.046875 -4.5625 10.109375 -3.6875 C 11.179688 -2.8125 12.476562 -2.375 14 -2.375 C 15.207031 -2.375 16.285156 -2.640625 17.234375 -3.171875 C 18.179688 -3.703125 18.992188 -4.414062 19.671875 -5.3125 Z M 19.671875 -12.203125 "/></g></g></g><g fill="#206d3c" fill-opacity="1"><g transform="translate(646.476214, 755.341139)"><g/></g></g><g fill="#206d3c" fill-opacity="1"><g transform="translate(653.990678, 755.341139)"><g><path d="M 19.671875 -28.109375 C 19.460938 -28.429688 19.054688 -28.75 18.453125 -29.0625 C 17.859375 -29.382812 17.273438 -29.65625 16.703125 -29.875 C 16.140625 -30.101562 15.769531 -30.242188 15.59375 -30.296875 L 15.640625 -31.125 L 22.390625 -32.75 L 24.125 -32.921875 L 24.125 -4.765625 C 24.125 -3.804688 24.53125 -3.117188 25.34375 -2.703125 C 26.164062 -2.285156 27.050781 -2.078125 28 -2.078125 L 28 -0.765625 L 21.609375 0.28125 L 20 0.28125 L 19.78125 -3.421875 C 18.65625 -2.109375 17.46875 -1.128906 16.21875 -0.484375 C 14.976562 0.160156 13.644531 0.484375 12.21875 0.484375 C 10.414062 0.484375 8.769531 0.0507812 7.28125 -0.8125 C 5.789062 -1.6875 4.613281 -2.910156 3.75 -4.484375 C 2.894531 -6.054688 2.46875 -7.863281 2.46875 -9.90625 C 2.46875 -12.25 2.945312 -14.34375 3.90625 -16.1875 C 4.875 -18.039062 6.203125 -19.484375 7.890625 -20.515625 C 9.585938 -21.554688 11.476562 -22.078125 13.5625 -22.078125 C 14.539062 -22.078125 15.488281 -21.929688 16.40625 -21.640625 C 17.332031 -21.347656 18.421875 -20.90625 19.671875 -20.3125 Z M 19.671875 -12.203125 C 19.671875 -13.742188 19.535156 -14.988281 19.265625 -15.9375 C 18.992188 -16.894531 18.441406 -17.738281 17.609375 -18.46875 C 16.972656 -19.03125 16.285156 -19.460938 15.546875 -19.765625 C 14.816406 -20.078125 14.078125 -20.234375 13.328125 -20.234375 C 12.066406 -20.234375 10.945312 -19.828125 9.96875 -19.015625 C 9 -18.203125 8.25 -17.117188 7.71875 -15.765625 C 7.1875 -14.421875 6.921875 -12.96875 6.921875 -11.40625 C 6.921875 -9.894531 7.1875 -8.445312 7.71875 -7.0625 C 8.25 -5.6875 9.046875 -4.5625 10.109375 -3.6875 C 11.179688 -2.8125 12.476562 -2.375 14 -2.375 C 15.207031 -2.375 16.285156 -2.640625 17.234375 -3.171875 C 18.179688 -3.703125 18.992188 -4.414062 19.671875 -5.3125 Z M 19.671875 -12.203125 "/></g></g></g><g fill="#206d3c" fill-opacity="1"><g transform="translate(678.730331, 755.341139)"><g><path d="M 6.203125 -12.578125 C 6.179688 -12.421875 6.171875 -12.191406 6.171875 -11.890625 C 6.171875 -9.878906 6.53125 -8.195312 7.25 -6.84375 C 7.976562 -5.5 8.953125 -4.503906 10.171875 -3.859375 C 11.398438 -3.210938 12.769531 -2.890625 14.28125 -2.890625 C 16.289062 -2.890625 18.226562 -3.46875 20.09375 -4.625 L 20.796875 -3.953125 C 20.410156 -3.023438 19.765625 -2.222656 18.859375 -1.546875 C 17.960938 -0.878906 16.941406 -0.375 15.796875 -0.03125 C 14.660156 0.3125 13.554688 0.484375 12.484375 0.484375 C 10.472656 0.484375 8.664062 0.015625 7.0625 -0.921875 C 5.46875 -1.867188 4.21875 -3.1875 3.3125 -4.875 C 2.414062 -6.570312 1.96875 -8.507812 1.96875 -10.6875 C 1.96875 -12.90625 2.453125 -14.890625 3.421875 -16.640625 C 4.390625 -18.390625 5.679688 -19.742188 7.296875 -20.703125 C 8.921875 -21.671875 10.660156 -22.15625 12.515625 -22.15625 C 14.023438 -22.15625 15.390625 -21.847656 16.609375 -21.234375 C 17.835938 -20.617188 18.832031 -19.753906 19.59375 -18.640625 C 20.363281 -17.535156 20.851562 -16.265625 21.0625 -14.828125 C 21.226562 -14.097656 21.3125 -13.421875 21.3125 -12.796875 L 21.3125 -12.578125 Z M 14.8125 -14.109375 C 15.507812 -14.148438 16.097656 -14.28125 16.578125 -14.5 C 16.460938 -16.394531 16.019531 -17.875 15.25 -18.9375 C 14.476562 -20.007812 13.382812 -20.546875 11.96875 -20.546875 C 10.925781 -20.546875 10 -20.234375 9.1875 -19.609375 C 8.382812 -18.992188 7.738281 -18.171875 7.25 -17.140625 C 6.757812 -16.109375 6.441406 -14.976562 6.296875 -13.75 Z M 14.8125 -14.109375 "/></g></g></g><g fill="#206d3c" fill-opacity="1"><g transform="translate(697.800032, 755.341139)"><g><path d="M 9.375 -5.59375 C 9.375 -4.257812 9.648438 -3.226562 10.203125 -2.5 C 10.753906 -1.769531 11.664062 -1.335938 12.9375 -1.203125 C 12.9375 -0.960938 12.925781 -0.722656 12.90625 -0.484375 C 12.894531 -0.242188 12.890625 -0.0820312 12.890625 0 L 1.125 0 L 1.09375 -1.203125 C 1.238281 -1.296875 1.425781 -1.378906 1.65625 -1.453125 C 1.894531 -1.535156 2.132812 -1.609375 2.375 -1.671875 C 3.070312 -1.867188 3.617188 -2.082031 4.015625 -2.3125 C 4.421875 -2.539062 4.660156 -2.882812 4.734375 -3.34375 C 4.859375 -4.03125 4.921875 -4.734375 4.921875 -5.453125 L 4.90625 -27.96875 C 4.71875 -28.289062 4.332031 -28.601562 3.75 -28.90625 C 3.164062 -29.21875 2.59375 -29.484375 2.03125 -29.703125 C 1.476562 -29.921875 1.117188 -30.050781 0.953125 -30.09375 L 1 -30.9375 L 7.65625 -32.75 L 9.375 -32.921875 Z M 9.375 -5.59375 "/></g></g></g><g fill="#206d3c" fill-opacity="1"><g transform="translate(708.041806, 755.341139)"><g><path d="M 7.015625 -32.921875 C 7.773438 -32.921875 8.425781 -32.648438 8.96875 -32.109375 C 9.507812 -31.566406 9.78125 -30.910156 9.78125 -30.140625 C 9.78125 -29.359375 9.507812 -28.703125 8.96875 -28.171875 C 8.425781 -27.640625 7.773438 -27.375 7.015625 -27.375 C 6.234375 -27.375 5.570312 -27.640625 5.03125 -28.171875 C 4.5 -28.703125 4.234375 -29.359375 4.234375 -30.140625 C 4.234375 -30.910156 4.5 -31.566406 5.03125 -32.109375 C 5.570312 -32.648438 6.234375 -32.921875 7.015625 -32.921875 Z M 5.09375 -17.390625 C 4.882812 -17.753906 4.5 -18.082031 3.9375 -18.375 C 3.375 -18.675781 2.789062 -18.925781 2.1875 -19.125 C 1.59375 -19.320312 1.296875 -19.414062 1.296875 -19.40625 L 1.34375 -20.234375 L 8.0625 -21.875 L 9.546875 -21.96875 L 9.546875 -5.265625 C 9.546875 -4.703125 9.601562 -4.171875 9.71875 -3.671875 C 9.84375 -3.179688 10.210938 -2.679688 10.828125 -2.171875 C 11.441406 -1.660156 12.410156 -1.335938 13.734375 -1.203125 C 13.734375 -0.671875 13.722656 -0.269531 13.703125 0 L 1.21875 0 C 1.1875 -0.289062 1.171875 -0.691406 1.171875 -1.203125 L 1.84375 -1.390625 C 2.539062 -1.578125 3.101562 -1.765625 3.53125 -1.953125 C 3.96875 -2.148438 4.335938 -2.4375 4.640625 -2.8125 C 4.941406 -3.1875 5.09375 -3.691406 5.09375 -4.328125 Z M 5.09375 -17.390625 "/></g></g></g><g fill="#206d3c" fill-opacity="1"><g transform="translate(718.283604, 755.341139)"><g><path d="M 22.5625 -19.265625 C 22.207031 -19.367188 21.632812 -19.421875 20.84375 -19.421875 C 20.195312 -19.421875 19.523438 -19.394531 18.828125 -19.34375 C 18.128906 -19.289062 17.675781 -19.25 17.46875 -19.21875 C 17.46875 -19.25 17.640625 -19.019531 17.984375 -18.53125 C 18.335938 -18.039062 18.65625 -17.476562 18.9375 -16.84375 C 19.21875 -16.21875 19.359375 -15.597656 19.359375 -14.984375 C 19.359375 -13.367188 18.953125 -11.984375 18.140625 -10.828125 C 17.328125 -9.679688 16.269531 -8.816406 14.96875 -8.234375 C 13.664062 -7.660156 12.304688 -7.375 10.890625 -7.375 C 10.085938 -7.375 9.066406 -7.515625 7.828125 -7.796875 C 7.773438 -7.765625 7.59375 -7.644531 7.28125 -7.4375 C 6.875 -7.1875 6.578125 -6.953125 6.390625 -6.734375 C 6.210938 -6.515625 6.125 -6.207031 6.125 -5.8125 C 6.125 -5.414062 6.332031 -5.117188 6.75 -4.921875 C 7.164062 -4.722656 7.722656 -4.585938 8.421875 -4.515625 C 9.117188 -4.441406 10.234375 -4.375 11.765625 -4.3125 C 12.921875 -4.257812 14.207031 -4.1875 15.625 -4.09375 C 17.644531 -3.945312 19.273438 -3.421875 20.515625 -2.515625 C 21.765625 -1.609375 22.390625 -0.351562 22.390625 1.25 C 22.390625 2.675781 21.851562 3.929688 20.78125 5.015625 C 19.71875 6.109375 18.28125 6.941406 16.46875 7.515625 C 14.65625 8.097656 12.664062 8.390625 10.5 8.390625 C 8.695312 8.390625 7.132812 8.191406 5.8125 7.796875 C 4.488281 7.410156 3.476562 6.910156 2.78125 6.296875 C 2.09375 5.691406 1.75 5.0625 1.75 4.40625 C 1.75 3.695312 2.039062 2.921875 2.625 2.078125 C 3.21875 1.234375 4.144531 0.347656 5.40625 -0.578125 C 4.507812 -0.941406 3.8125 -1.410156 3.3125 -1.984375 C 2.8125 -2.554688 2.5625 -3.195312 2.5625 -3.90625 C 2.5625 -4.75 2.90625 -5.53125 3.59375 -6.25 C 4.28125 -6.96875 5.253906 -7.691406 6.515625 -8.421875 C 5.253906 -9.140625 4.28125 -10.023438 3.59375 -11.078125 C 2.90625 -12.128906 2.5625 -13.328125 2.5625 -14.671875 C 2.5625 -16.097656 2.914062 -17.378906 3.625 -18.515625 C 4.332031 -19.660156 5.320312 -20.550781 6.59375 -21.1875 C 7.863281 -21.832031 9.285156 -22.15625 10.859375 -22.15625 C 12.753906 -22.15625 14.507812 -21.734375 16.125 -20.890625 C 16.28125 -20.953125 16.640625 -21.070312 17.203125 -21.25 C 17.765625 -21.4375 18.429688 -21.617188 19.203125 -21.796875 C 19.972656 -21.972656 20.675781 -22.0625 21.3125 -22.0625 C 21.539062 -22.0625 21.769531 -22.046875 22 -22.015625 C 22.226562 -21.992188 22.375 -21.976562 22.4375 -21.96875 Z M 6.8125 -15.171875 C 6.8125 -13.347656 7.191406 -11.851562 7.953125 -10.6875 C 8.710938 -9.53125 9.84375 -8.953125 11.34375 -8.953125 C 12.632812 -8.953125 13.59375 -9.425781 14.21875 -10.375 C 14.851562 -11.332031 15.171875 -12.632812 15.171875 -14.28125 C 15.171875 -15.570312 14.972656 -16.675781 14.578125 -17.59375 C 14.191406 -18.507812 13.65625 -19.203125 12.96875 -19.671875 C 12.28125 -20.148438 11.515625 -20.390625 10.671875 -20.390625 C 9.953125 -20.390625 9.300781 -20.164062 8.71875 -19.71875 C 8.132812 -19.28125 7.671875 -18.664062 7.328125 -17.875 C 6.984375 -17.09375 6.8125 -16.191406 6.8125 -15.171875 Z M 11.296875 -0.078125 C 10.078125 -0.0859375 8.703125 -0.179688 7.171875 -0.359375 C 5.628906 0.960938 4.859375 2.175781 4.859375 3.28125 C 4.859375 4.039062 5.210938 4.65625 5.921875 5.125 C 6.628906 5.601562 7.460938 5.9375 8.421875 6.125 C 9.390625 6.3125 10.289062 6.40625 11.125 6.40625 C 12.289062 6.40625 13.492188 6.273438 14.734375 6.015625 C 15.984375 5.753906 17.03125 5.351562 17.875 4.8125 C 18.71875 4.269531 19.140625 3.609375 19.140625 2.828125 C 19.140625 1.960938 18.664062 1.28125 17.71875 0.78125 C 16.769531 0.289062 15.304688 0.0195312 13.328125 -0.03125 Z M 11.296875 -0.078125 "/></g></g></g><g fill="#206d3c" fill-opacity="1"><g transform="translate(738.2624, 755.341139)"><g><path d="M 24.859375 -5.28125 C 24.859375 -4.0625 25.171875 -3.101562 25.796875 -2.40625 C 26.429688 -1.707031 27.332031 -1.304688 28.5 -1.203125 C 28.5 -0.960938 28.488281 -0.722656 28.46875 -0.484375 C 28.457031 -0.253906 28.453125 -0.09375 28.453125 0 L 16.671875 0 C 16.671875 -0.09375 16.660156 -0.253906 16.640625 -0.484375 C 16.628906 -0.722656 16.625 -0.960938 16.625 -1.203125 C 16.894531 -1.328125 17.421875 -1.507812 18.203125 -1.75 C 18.804688 -1.9375 19.25 -2.113281 19.53125 -2.28125 C 19.8125 -2.445312 20.023438 -2.742188 20.171875 -3.171875 C 20.328125 -3.609375 20.40625 -4.257812 20.40625 -5.125 L 20.40625 -13.8125 C 20.40625 -15.5625 20.035156 -16.957031 19.296875 -18 C 18.554688 -19.050781 17.394531 -19.578125 15.8125 -19.578125 C 14.675781 -19.578125 13.578125 -19.273438 12.515625 -18.671875 C 11.460938 -18.078125 10.488281 -17.304688 9.59375 -16.359375 L 9.59375 -5.578125 C 9.59375 -4.140625 9.921875 -3.082031 10.578125 -2.40625 C 11.234375 -1.738281 12.300781 -1.335938 13.78125 -1.203125 L 13.75 0 L 1 0 C 1 -0.09375 0.988281 -0.253906 0.96875 -0.484375 C 0.957031 -0.722656 0.953125 -0.960938 0.953125 -1.203125 C 3.742188 -1.421875 5.140625 -2.878906 5.140625 -5.578125 L 5.140625 -27.84375 C 4.984375 -28.082031 4.632812 -28.375 4.09375 -28.71875 C 3.550781 -29.0625 2.976562 -29.367188 2.375 -29.640625 C 1.78125 -29.910156 1.335938 -30.0625 1.046875 -30.09375 L 1.046875 -30.9375 L 7.890625 -32.75 L 9.59375 -32.921875 L 9.59375 -18.375 C 10.851562 -19.632812 12.085938 -20.578125 13.296875 -21.203125 C 14.515625 -21.835938 15.921875 -22.15625 17.515625 -22.15625 C 19.734375 -22.15625 21.507812 -21.445312 22.84375 -20.03125 C 24.1875 -18.625 24.859375 -16.476562 24.859375 -13.59375 Z M 24.859375 -5.28125 "/></g></g></g><g fill="#206d3c" fill-opacity="1"><g transform="translate(763.408775, 755.341139)"><g><path d="M 8.78125 -7.515625 C 8.78125 -5.890625 8.832031 -4.726562 8.9375 -4.03125 C 9.050781 -3.332031 9.320312 -2.828125 9.75 -2.515625 C 10.1875 -2.210938 10.914062 -2.0625 11.9375 -2.0625 C 12.539062 -2.0625 13.144531 -2.113281 13.75 -2.21875 C 14.363281 -2.332031 14.875 -2.453125 15.28125 -2.578125 L 15.484375 -0.84375 C 14.671875 -0.4375 13.847656 -0.113281 13.015625 0.125 C 12.179688 0.363281 11.1875 0.484375 10.03125 0.484375 C 8.476562 0.484375 7.296875 0.226562 6.484375 -0.28125 C 5.671875 -0.789062 5.101562 -1.613281 4.78125 -2.75 C 4.46875 -3.894531 4.3125 -5.503906 4.3125 -7.578125 L 4.3125 -19.71875 L 0.734375 -19.71875 L 0.734375 -20.546875 C 1.828125 -20.984375 2.742188 -21.488281 3.484375 -22.0625 C 4.222656 -22.644531 4.832031 -23.25 5.3125 -23.875 C 5.789062 -24.5 6.363281 -25.320312 7.03125 -26.34375 C 7.320312 -26.800781 7.546875 -27.101562 7.703125 -27.25 C 7.859375 -27.40625 8.019531 -27.484375 8.1875 -27.484375 C 8.34375 -27.484375 8.472656 -27.40625 8.578125 -27.25 C 8.679688 -27.101562 8.734375 -26.875 8.734375 -26.5625 L 8.734375 -21.515625 L 14.734375 -21.515625 L 14.734375 -19.71875 L 8.78125 -19.71875 Z M 8.78125 -7.515625 "/></g></g></g><g fill="#206d3c" fill-opacity="1"><g transform="translate(775.803709, 755.341139)"><g><path d="M 16.53125 -15.09375 C 16.3125 -15.082031 15.9375 -15.078125 15.40625 -15.078125 C 14.945312 -16.679688 14.25 -17.992188 13.3125 -19.015625 C 12.382812 -20.035156 11.191406 -20.546875 9.734375 -20.546875 C 8.734375 -20.546875 7.941406 -20.296875 7.359375 -19.796875 C 6.773438 -19.304688 6.484375 -18.59375 6.484375 -17.65625 C 6.484375 -17 6.722656 -16.390625 7.203125 -15.828125 C 7.679688 -15.273438 8.265625 -14.785156 8.953125 -14.359375 C 9.648438 -13.941406 10.566406 -13.445312 11.703125 -12.875 C 11.972656 -12.75 12.378906 -12.539062 12.921875 -12.25 C 14.703125 -11.289062 16.003906 -10.3125 16.828125 -9.3125 C 17.648438 -8.320312 18.0625 -7.109375 18.0625 -5.671875 C 18.0625 -4.347656 17.734375 -3.226562 17.078125 -2.3125 C 16.429688 -1.394531 15.53125 -0.695312 14.375 -0.21875 C 13.226562 0.25 11.914062 0.484375 10.4375 0.484375 C 9.125 0.484375 7.796875 0.328125 6.453125 0.015625 C 5.117188 -0.296875 4.019531 -0.71875 3.15625 -1.25 L 3.15625 -7.078125 C 3.78125 -7.160156 4.203125 -7.203125 4.421875 -7.203125 C 4.796875 -5.429688 5.445312 -3.988281 6.375 -2.875 C 7.3125 -1.757812 8.59375 -1.203125 10.21875 -1.203125 C 11.382812 -1.203125 12.351562 -1.488281 13.125 -2.0625 C 13.894531 -2.644531 14.28125 -3.414062 14.28125 -4.375 C 14.28125 -4.976562 14.101562 -5.507812 13.75 -5.96875 C 13.40625 -6.4375 12.953125 -6.847656 12.390625 -7.203125 C 11.835938 -7.554688 11 -8.023438 9.875 -8.609375 C 8.375 -9.410156 7.234375 -10.054688 6.453125 -10.546875 C 5.242188 -11.296875 4.332031 -12.132812 3.71875 -13.0625 C 3.101562 -13.988281 2.796875 -15.085938 2.796875 -16.359375 C 2.796875 -17.585938 3.109375 -18.632812 3.734375 -19.5 C 4.359375 -20.375 5.203125 -21.035156 6.265625 -21.484375 C 7.335938 -21.929688 8.539062 -22.15625 9.875 -22.15625 C 11.101562 -22.15625 12.269531 -22.003906 13.375 -21.703125 C 14.488281 -21.398438 15.492188 -20.96875 16.390625 -20.40625 Z M 16.53125 -15.09375 "/></g></g></g><g transform="matrix(1, 0, 0, 1, 561, 618)"><g clip-path="url(#63ff8f0c28)"><g fill="#b88500" fill-opacity="1"><g transform="translate(1.397993, 94.609239)"><g><path d="M 30.375 -29.359375 C 30.375 -31.765625 30.15625 -33.800781 29.71875 -35.46875 C 29.289062 -37.144531 28.425781 -38.5 27.125 -39.53125 C 25.820312 -40.5625 23.960938 -41.078125 21.546875 -41.078125 C 20.710938 -41.078125 19.679688 -40.898438 18.453125 -40.546875 C 17.234375 -40.191406 16.164062 -39.679688 15.25 -39.015625 C 14.34375 -38.359375 13.890625 -37.597656 13.890625 -36.734375 C 13.890625 -36.378906 13.953125 -36.03125 14.078125 -35.6875 C 14.203125 -35.351562 14.410156 -34.929688 14.703125 -34.421875 C 14.992188 -33.941406 15.203125 -33.523438 15.328125 -33.171875 C 15.460938 -32.816406 15.53125 -32.445312 15.53125 -32.0625 C 15.53125 -30.769531 15.117188 -29.695312 14.296875 -28.84375 C 13.472656 -28 12.421875 -27.578125 11.140625 -27.578125 C 9.523438 -27.578125 8.242188 -28.171875 7.296875 -29.359375 C 6.347656 -30.546875 5.875 -31.976562 5.875 -33.65625 C 5.875 -36.15625 6.851562 -38.222656 8.8125 -39.859375 C 10.78125 -41.503906 13.15625 -42.710938 15.9375 -43.484375 C 18.71875 -44.253906 21.3125 -44.640625 23.71875 -44.640625 C 28.25 -44.640625 31.628906 -43.972656 33.859375 -42.640625 C 36.097656 -41.304688 37.578125 -39.359375 38.296875 -36.796875 C 39.023438 -34.242188 39.390625 -30.671875 39.390625 -26.078125 L 39.296875 -23.671875 C 39.265625 -22.960938 39.222656 -21.785156 39.171875 -20.140625 C 39.117188 -18.503906 39.09375 -17 39.09375 -15.625 C 39.09375 -8.382812 39.847656 -4.765625 41.359375 -4.765625 C 42.453125 -4.765625 43.867188 -5.875 45.609375 -8.09375 L 47.625 -5.9375 C 46.21875 -3.613281 44.820312 -1.878906 43.4375 -0.734375 C 42.050781 0.398438 40.234375 0.96875 37.984375 0.96875 C 35.867188 0.96875 34.125 0.300781 32.75 -1.03125 C 31.382812 -2.363281 30.640625 -4.09375 30.515625 -6.21875 C 28.460938 -3.96875 26.15625 -2.207031 23.59375 -0.9375 C 21.039062 0.332031 18.332031 0.96875 15.46875 0.96875 C 13.476562 0.96875 11.640625 0.609375 9.953125 -0.109375 C 8.265625 -0.835938 6.914062 -1.925781 5.90625 -3.375 C 4.894531 -4.820312 4.390625 -6.554688 4.390625 -8.578125 C 4.390625 -11.628906 5.5625 -14.164062 7.90625 -16.1875 C 10.25 -18.21875 12.945312 -19.765625 16 -20.828125 C 19.050781 -21.890625 22.78125 -22.953125 27.1875 -24.015625 C 27.570312 -24.078125 28.632812 -24.332031 30.375 -24.78125 Z M 30.375 -21.9375 C 29.894531 -21.769531 29.285156 -21.578125 28.546875 -21.359375 C 25.773438 -20.453125 23.410156 -19.585938 21.453125 -18.765625 C 19.492188 -17.953125 17.742188 -16.851562 16.203125 -15.46875 C 14.660156 -14.09375 13.890625 -12.472656 13.890625 -10.609375 C 13.890625 -8.710938 14.410156 -7.21875 15.453125 -6.125 C 16.492188 -5.03125 17.960938 -4.484375 19.859375 -4.484375 C 21.753906 -4.484375 23.585938 -4.957031 25.359375 -5.90625 C 27.128906 -6.851562 28.800781 -8.097656 30.375 -9.640625 Z M 30.375 -21.9375 "/></g></g></g><g fill="#b88500" fill-opacity="1"><g transform="translate(42.237156, 94.609239)"><g><path d="M 18.84375 -11.328125 C 18.84375 -8.890625 19.226562 -7.066406 20 -5.859375 C 20.78125 -4.648438 21.664062 -3.867188 22.65625 -3.515625 C 23.65625 -3.160156 25.210938 -2.789062 27.328125 -2.40625 C 27.328125 -1.925781 27.3125 -1.441406 27.28125 -0.953125 C 27.25 -0.472656 27.234375 -0.15625 27.234375 0 L 2.359375 0 L 2.359375 -2.5625 C 2.421875 -2.59375 2.875 -2.71875 3.71875 -2.9375 C 5.320312 -3.320312 6.632812 -3.78125 7.65625 -4.3125 C 8.6875 -4.84375 9.316406 -5.65625 9.546875 -6.75 C 9.703125 -7.289062 9.796875 -7.84375 9.828125 -8.40625 C 9.867188 -8.96875 9.890625 -9.734375 9.890625 -10.703125 L 9.890625 -35 C 9.492188 -35.769531 8.722656 -36.453125 7.578125 -37.046875 C 6.441406 -37.640625 5.265625 -38.132812 4.046875 -38.53125 C 2.828125 -38.9375 2.21875 -39.125 2.21875 -39.09375 L 2.359375 -40.734375 L 15.625 -44.015625 L 18.46875 -44.203125 L 19 -36.34375 C 20.894531 -38.820312 23.125 -40.820312 25.6875 -42.34375 C 28.257812 -43.875 31.140625 -44.640625 34.328125 -44.640625 C 37.472656 -44.640625 40.070312 -43.992188 42.125 -42.703125 C 44.1875 -41.421875 45.765625 -39.476562 46.859375 -36.875 C 48.398438 -38.582031 49.863281 -39.972656 51.25 -41.046875 C 52.632812 -42.128906 54.175781 -42.984375 55.875 -43.609375 C 57.582031 -44.234375 59.507812 -44.546875 61.65625 -44.546875 C 65.863281 -44.546875 69.242188 -43.554688 71.796875 -41.578125 C 74.359375 -39.597656 75.816406 -36.601562 76.171875 -32.59375 C 76.429688 -29.570312 76.5625 -26.535156 76.5625 -23.484375 L 76.5625 -10.84375 C 76.5625 -9.238281 76.671875 -7.875 76.890625 -6.75 C 77.054688 -5.8125 77.46875 -5.070312 78.125 -4.53125 C 78.78125 -3.988281 79.429688 -3.609375 80.078125 -3.390625 C 80.722656 -3.179688 81.847656 -2.851562 83.453125 -2.40625 C 83.453125 -1.925781 83.4375 -1.453125 83.40625 -0.984375 C 83.375 -0.523438 83.359375 -0.195312 83.359375 0 L 60.171875 0 C 60.171875 -0.195312 60.148438 -0.523438 60.109375 -0.984375 C 60.078125 -1.453125 60.0625 -1.925781 60.0625 -2.40625 C 60.226562 -2.4375 60.414062 -2.484375 60.625 -2.546875 C 60.832031 -2.617188 61.050781 -2.6875 61.28125 -2.75 C 62.945312 -3.195312 64.273438 -3.6875 65.265625 -4.21875 C 66.265625 -4.75 66.894531 -5.5625 67.15625 -6.65625 C 67.414062 -7.9375 67.546875 -9.332031 67.546875 -10.84375 L 67.546875 -29.984375 C 67.546875 -33.003906 66.773438 -35.34375 65.234375 -37 C 63.691406 -38.65625 61.488281 -39.484375 58.625 -39.484375 C 56.632812 -39.484375 54.65625 -38.894531 52.6875 -37.71875 C 50.726562 -36.550781 48.992188 -35.128906 47.484375 -33.453125 C 47.679688 -31.234375 47.78125 -27.664062 47.78125 -22.75 L 47.78125 -11.09375 C 47.78125 -9.257812 47.875 -7.84375 48.0625 -6.84375 C 48.257812 -5.6875 48.863281 -4.832031 49.875 -4.28125 C 50.882812 -3.738281 52.226562 -3.242188 53.90625 -2.796875 C 54.800781 -2.503906 55.234375 -2.375 55.203125 -2.40625 C 55.203125 -1.925781 55.1875 -1.441406 55.15625 -0.953125 C 55.125 -0.472656 55.109375 -0.15625 55.109375 0 L 31 0 C 31 -0.195312 30.984375 -0.523438 30.953125 -0.984375 C 30.921875 -1.453125 30.90625 -1.925781 30.90625 -2.40625 C 31.03125 -2.4375 31.804688 -2.585938 33.234375 -2.859375 C 34.671875 -3.140625 35.953125 -3.992188 37.078125 -5.421875 C 38.203125 -6.847656 38.765625 -8.722656 38.765625 -11.046875 L 38.765625 -27.8125 C 38.765625 -31.570312 38.164062 -34.445312 36.96875 -36.4375 C 35.78125 -38.4375 33.710938 -39.4375 30.765625 -39.4375 C 28.441406 -39.4375 26.335938 -38.832031 24.453125 -37.625 C 22.578125 -36.414062 20.707031 -34.769531 18.84375 -32.6875 Z M 18.84375 -11.328125 "/></g></g></g></g></g></svg>